<svg xmlns="http://www.w3.org/2000/svg" xmlns:xlink="http://www.w3.org/1999/xlink" width="500" zoomAndPan="magnify" viewBox="0 0 375 374.999991" height="500" preserveAspectRatio="xMidYMid meet" version="1.0"><defs><clipPath id="72177dce7b"><path d="M 156 170 L 258.117188 170 L 258.117188 232 L 156 232 Z M 156 170 " clip-rule="nonzero"/></clipPath><clipPath id="21ba88f38f"><path d="M 114.117188 89 L 247 89 L 247 238.996094 L 114.117188 238.996094 Z M 114.117188 89 " clip-rule="nonzero"/></clipPath></defs><g clip-path="url(#72177dce7b)"><path fill="#fbb03b" d="M 230.695312 206.789062 C 235.199219 198.917969 237.769531 189.796875 237.769531 180.078125 C 237.769531 176.867188 237.488281 173.722656 236.949219 170.664062 C 234.769531 182.789062 228.324219 193.433594 219.21875 200.980469 C 213.949219 205.351562 206.109375 204.464844 201.984375 199 L 194.292969 188.808594 C 193.011719 187.109375 191.007812 186.113281 188.886719 186.113281 L 159.566406 186.113281 C 159.5625 186.113281 159.554688 186.117188 159.550781 186.117188 C 157.546875 186.128906 156.253906 188.238281 157.152344 190.03125 L 158.320312 192.355469 C 160.488281 196.675781 164.757812 199.546875 169.578125 199.929688 L 171.316406 200.0625 L 178.917969 200.664062 C 181.070312 200.832031 183.011719 202.023438 184.136719 203.867188 L 187.585938 209.503906 L 189.515625 212.664062 L 200.328125 230.351562 C 200.523438 230.667969 200.765625 230.945312 201.039062 231.171875 C 201.832031 231.835938 202.90625 232.113281 203.945312 231.855469 C 203.953125 231.855469 203.960938 231.851562 203.96875 231.851562 C 232.023438 224.925781 253.632812 201.65625 258.121094 172.722656 C 254.179688 187.566406 244.066406 199.894531 230.695312 206.789062 " fill-opacity="1" fill-rule="nonzero"/></g><g clip-path="url(#21ba88f38f)"><path fill="#60c0e2" d="M 182.066406 205.128906 C 181.347656 203.953125 180.101562 203.1875 178.726562 203.082031 L 169.386719 202.34375 C 163.757812 201.902344 158.6875 198.492188 156.152344 193.445312 L 155.046875 191.242188 C 154.261719 189.679688 154.242188 187.804688 155.109375 186.285156 C 156.003906 184.714844 157.617188 183.75 159.40625 183.691406 L 159.566406 183.6875 L 168.953125 183.6875 C 165.894531 178.859375 160.378906 176.140625 154.671875 176.675781 L 144.917969 177.585938 C 140.742188 177.976562 136.988281 175.097656 136.21875 170.972656 C 135.648438 167.914062 135.347656 164.761719 135.347656 161.539062 C 135.347656 145.199219 143.003906 130.644531 154.917969 121.269531 C 143.113281 129.042969 133.925781 140.46875 128.96875 153.941406 C 133.433594 121.488281 161.273438 96.488281 194.953125 96.488281 C 215.800781 96.488281 234.410156 106.066406 246.625 121.0625 C 233.644531 101.839844 211.679688 89.179688 186.75 89.117188 C 146.851562 89.011719 114.195312 121.527344 114.136719 161.429688 C 114.117188 175.476562 118.097656 188.589844 125 199.699219 C 125.148438 199.933594 125.289062 200.167969 125.4375 200.402344 L 135.105469 198.761719 C 139.425781 198.03125 142.980469 202.207031 141.511719 206.335938 C 141.46875 206.449219 141.445312 206.511719 141.445312 206.511719 C 147.667969 208.773438 146.617188 214.835938 146.617188 214.835938 C 152.113281 217.34375 149.851562 222.515625 149.851562 222.515625 C 151.792969 223.320312 152.476562 224.890625 152.652344 225.402344 C 152.742188 225.664062 152.839844 225.925781 152.941406 226.183594 L 156.699219 235.828125 C 157.347656 237.488281 159.332031 238.84375 161.113281 238.84375 C 163.359375 238.84375 164.914062 236.601562 164.121094 234.496094 L 162.363281 229.8125 L 160.015625 223.566406 C 159.851562 223.132812 160.148438 222.652344 160.625 222.617188 C 160.9375 222.597656 161.21875 222.800781 161.339844 223.085938 L 164.421875 230.511719 L 166.703125 236.007812 C 167.492188 237.898438 169.566406 238.984375 171.53125 238.410156 C 173.890625 237.722656 175.0625 235.082031 173.996094 232.871094 C 173.996094 232.871094 173.996094 232.867188 173.996094 232.867188 L 168.347656 221.203125 C 168.105469 220.703125 168.4375 220.113281 168.988281 220.058594 C 169.308594 220.027344 169.617188 220.195312 169.769531 220.476562 L 176.640625 233.28125 L 177.492188 234.871094 C 178.332031 236.4375 180.171875 237.25 181.859375 236.691406 C 183.171875 236.257812 184.046875 235.164062 184.277344 233.921875 C 184.417969 233.164062 184.320312 232.355469 183.9375 231.613281 L 178.558594 221.191406 C 178.324219 220.730469 178.496094 220.144531 178.972656 219.945312 C 179.394531 219.769531 179.867188 219.949219 180.074219 220.339844 L 186.152344 231.820312 C 186.644531 232.746094 187.375 233.464844 188.230469 233.941406 C 189.65625 234.730469 191.421875 234.84375 193 234.097656 C 193.300781 233.957031 193.582031 233.785156 193.839844 233.59375 C 195.996094 232.03125 196.671875 229.019531 195.226562 226.652344 L 182.066406 205.128906 " fill-opacity="1" fill-rule="nonzero"/></g><path fill="#fbb03b" d="M 129.53125 209.484375 L 137.136719 208.222656 C 139.417969 207.84375 140.960938 205.6875 140.582031 203.40625 C 140.203125 201.121094 138.046875 199.578125 135.765625 199.957031 L 128.160156 201.21875 C 125.878906 201.597656 124.335938 203.753906 124.714844 206.035156 C 125.09375 208.320312 127.25 209.859375 129.53125 209.484375 " fill-opacity="1" fill-rule="nonzero"/><path fill="#fbb03b" d="M 144.460938 211.648438 C 144.082031 209.367188 141.925781 207.824219 139.644531 208.203125 L 129.265625 210.1875 C 126.984375 210.566406 125.4375 212.722656 125.816406 215.003906 C 126.195312 217.285156 128.351562 218.828125 130.636719 218.449219 L 141.015625 216.464844 C 143.296875 216.085938 144.839844 213.929688 144.460938 211.648438 " fill-opacity="1" fill-rule="nonzero"/><path fill="#fbb03b" d="M 147.964844 220.269531 C 147.585938 217.988281 145.429688 216.445312 143.148438 216.824219 L 135.542969 218.085938 C 133.261719 218.464844 131.71875 220.621094 132.097656 222.902344 C 132.472656 225.183594 134.632812 226.726562 136.914062 226.347656 L 144.515625 225.085938 C 146.800781 224.707031 148.34375 222.554688 147.964844 220.269531 " fill-opacity="1" fill-rule="nonzero"/><path fill="#fbb03b" d="M 148.425781 224.90625 L 142.183594 225.902344 C 139.902344 226.28125 138.359375 228.4375 138.738281 230.71875 C 139.113281 233 141.273438 234.542969 143.554688 234.164062 L 149.796875 233.171875 C 152.082031 232.792969 153.625 230.636719 153.246094 228.355469 C 152.867188 226.070312 150.710938 224.527344 148.425781 224.90625 " fill-opacity="1" fill-rule="nonzero"/></svg>